<svg width="820" height="312" viewBox="0 0 820 312" fill="none" xmlns="http://www.w3.org/2000/svg">
<g clip-path="url(#clip0_2_4)">
<rect width="820" height="312" fill="#091F2A"/>
<g opacity="0.9" filter="url(#filter0_f_2_4)">
<circle cx="13.5" cy="-34.5" r="112.5" fill="#0C326A"/>
</g>
<g opacity="0.8" filter="url(#filter1_f_2_4)">
<circle cx="118.5" cy="384.5" r="134.5" fill="#11052E"/>
</g>
<g opacity="0.5" filter="url(#filter2_f_2_4)">
<circle cx="839.5" cy="311.5" r="151.5" fill="#114797"/>
</g>
<path d="M73.1381 67H71.6077V61.2235H67.0077V67H65.4773V54.8188H67.0077V59.9673H71.6077V54.8188H73.1381V67ZM79.403 53.3238C79.7273 53.3238 79.9898 53.4241 80.1903 53.6246C80.3908 53.8192 80.4911 54.064 80.4911 54.3588C80.4911 54.6655 80.3908 54.9191 80.1903 55.1196C79.9898 55.3201 79.7273 55.4204 79.403 55.4204C79.0904 55.4204 78.8339 55.3201 78.6334 55.1196C78.4329 54.9132 78.3326 54.6596 78.3326 54.3588C78.3326 54.064 78.4329 53.8192 78.6334 53.6246C78.8339 53.4241 79.0904 53.3238 79.403 53.3238ZM76.3157 57.685H80.5884V65.8235H83.2157V67H76.2272V65.8235H79.1022V58.8615H76.3157V57.685ZM89.4983 64.0896C89.7696 64.0896 90.0143 64.1545 90.2325 64.2842C90.4507 64.4081 90.6217 64.5791 90.7456 64.7973C90.8694 65.0096 90.9314 65.2455 90.9314 65.505C90.9314 65.7232 90.9048 65.9414 90.8517 66.1596C90.7987 66.3778 90.7102 66.6226 90.5864 66.8938L89.1533 70.1758H87.8087L88.6579 66.6815C88.481 66.5518 88.3394 66.3837 88.2333 66.1773C88.133 65.965 88.0829 65.7409 88.0829 65.505C88.0829 65.2455 88.1448 65.0096 88.2687 64.7973C88.3925 64.5791 88.5606 64.4081 88.7729 64.2842C88.9911 64.1545 89.2329 64.0896 89.4983 64.0896ZM112.298 57.4904C112.829 57.4904 113.263 57.6762 113.599 58.0477C113.935 58.4133 114.103 59.0856 114.103 60.0646V67H112.723V60.3035C112.723 59.8612 112.708 59.5309 112.679 59.3127C112.649 59.0886 112.585 58.9235 112.484 58.8173C112.384 58.7053 112.225 58.6492 112.007 58.6492C111.399 58.6492 110.857 59.0208 110.379 59.7638V67H108.99V60.3035C108.99 59.8612 108.975 59.5309 108.946 59.3127C108.916 59.0886 108.851 58.9235 108.751 58.8173C108.651 58.7053 108.492 58.6492 108.273 58.6492C107.666 58.6492 107.123 59.0208 106.646 59.7638V67H105.275V57.685H106.442L106.531 58.7642C106.814 58.3573 107.115 58.0447 107.433 57.8265C107.752 57.6024 108.126 57.4904 108.557 57.4904C109.435 57.4904 109.998 57.9003 110.246 58.72C110.523 58.319 110.821 58.0153 111.14 57.8088C111.464 57.5965 111.85 57.4904 112.298 57.4904ZM120.731 67.0619C120.489 67.7578 120.2 68.3594 119.864 68.8665C119.534 69.3737 119.097 69.7924 118.555 70.1227C118.018 70.4588 117.357 70.6653 116.573 70.7419L116.343 69.5565C116.968 69.4504 117.466 69.2912 117.838 69.0788C118.215 68.8665 118.51 68.5982 118.723 68.2738C118.935 67.9495 119.132 67.5249 119.315 67H118.82L115.565 57.685H117.157L119.828 65.8677L122.465 57.685H124.004L120.731 67.0619ZM136.445 67V57.685H137.71L137.825 58.9765C138.197 58.5106 138.663 58.1479 139.223 57.8885C139.789 57.6231 140.349 57.4904 140.904 57.4904C141.794 57.4904 142.452 57.7263 142.876 58.1981C143.307 58.6699 143.522 59.3481 143.522 60.2327V67H142.036V61.3296C142.036 60.6337 141.998 60.1029 141.921 59.7373C141.85 59.3717 141.7 59.1004 141.47 58.9235C141.246 58.7465 140.904 58.6581 140.444 58.6581C139.942 58.6581 139.468 58.8144 139.019 59.1269C138.577 59.4336 138.214 59.7963 137.931 60.215V67H136.445ZM153.21 64.9654C153.21 65.331 153.269 65.6023 153.387 65.7792C153.505 65.9503 153.7 66.0771 153.971 66.1596L153.608 67.2035C152.712 67.0855 152.143 66.6491 151.901 65.8942C151.571 66.3247 151.152 66.6521 150.645 66.8762C150.144 67.0944 149.589 67.2035 148.982 67.2035C148.369 67.2035 147.835 67.0855 147.381 66.8496C146.927 66.6137 146.579 66.2805 146.337 65.85C146.095 65.4136 145.974 64.9064 145.974 64.3285C145.974 63.3672 146.349 62.63 147.098 62.1169C147.847 61.6038 148.929 61.3473 150.344 61.3473H151.715V60.5688C151.715 59.9201 151.527 59.4513 151.149 59.1623C150.772 58.8674 150.22 58.72 149.495 58.72C148.793 58.72 147.985 58.8792 147.071 59.1977L146.682 58.0742C147.72 57.685 148.734 57.4904 149.725 57.4904C150.863 57.4904 151.727 57.7587 152.317 58.2954C152.913 58.8262 153.21 59.5604 153.21 60.4981V64.9654ZM149.362 66.0712C149.822 66.0712 150.259 65.9562 150.672 65.7262C151.09 65.4903 151.438 65.1659 151.715 64.7531V62.3558H150.371C149.386 62.3558 148.672 62.5238 148.23 62.86C147.788 63.1962 147.567 63.6797 147.567 64.3108C147.567 65.4844 148.165 66.0712 149.362 66.0712ZM162.775 57.4904C163.306 57.4904 163.739 57.6762 164.075 58.0477C164.411 58.4133 164.58 59.0856 164.58 60.0646V67H163.2V60.3035C163.2 59.8612 163.185 59.5309 163.155 59.3127C163.126 59.0886 163.061 58.9235 162.961 58.8173C162.86 58.7053 162.701 58.6492 162.483 58.6492C161.876 58.6492 161.333 59.0208 160.855 59.7638V67H159.466V60.3035C159.466 59.8612 159.452 59.5309 159.422 59.3127C159.393 59.0886 159.328 58.9235 159.228 58.8173C159.127 58.7053 158.968 58.6492 158.75 58.6492C158.143 58.6492 157.6 59.0208 157.122 59.7638V67H155.751V57.685H156.919L157.007 58.7642C157.29 58.3573 157.591 58.0447 157.91 57.8265C158.228 57.6024 158.603 57.4904 159.033 57.4904C159.912 57.4904 160.475 57.9003 160.723 58.72C161 58.319 161.298 58.0153 161.616 57.8088C161.94 57.5965 162.327 57.4904 162.775 57.4904ZM167.899 62.8688C167.922 63.5647 168.058 64.1456 168.306 64.6115C168.553 65.0715 168.878 65.4136 169.279 65.6377C169.68 65.8559 170.128 65.965 170.623 65.965C171.083 65.965 171.505 65.8972 171.888 65.7615C172.278 65.6259 172.684 65.4136 173.109 65.1246L173.808 66.1065C173.372 66.4486 172.87 66.7169 172.304 66.9115C171.744 67.1062 171.178 67.2035 170.606 67.2035C169.715 67.2035 168.948 67.0029 168.306 66.6019C167.663 66.2009 167.173 65.6347 166.837 64.9035C166.507 64.1722 166.342 63.3229 166.342 62.3558C166.342 61.4181 166.51 60.5806 166.846 59.8435C167.182 59.1063 167.657 58.5313 168.27 58.1185C168.884 57.6997 169.597 57.4904 170.411 57.4904C171.189 57.4904 171.862 57.6732 172.428 58.0388C173 58.4045 173.436 58.9323 173.737 59.6223C174.044 60.3064 174.197 61.1173 174.197 62.055C174.197 62.3263 174.185 62.5976 174.162 62.8688H167.899ZM170.429 58.7112C169.709 58.7112 169.122 58.9647 168.668 59.4719C168.22 59.9732 167.967 60.7222 167.908 61.7188H172.764C172.746 60.7399 172.531 59.9938 172.118 59.4808C171.705 58.9677 171.142 58.7112 170.429 58.7112ZM190.451 53.3238C190.776 53.3238 191.038 53.4241 191.239 53.6246C191.439 53.8192 191.539 54.064 191.539 54.3588C191.539 54.6655 191.439 54.9191 191.239 55.1196C191.038 55.3201 190.776 55.4204 190.451 55.4204C190.139 55.4204 189.882 55.3201 189.682 55.1196C189.481 54.9132 189.381 54.6596 189.381 54.3588C189.381 54.064 189.481 53.8192 189.682 53.6246C189.882 53.4241 190.139 53.3238 190.451 53.3238ZM187.364 57.685H191.637V65.8235H194.264V67H187.275V65.8235H190.15V58.8615H187.364V57.685ZM200.184 65.9738C200.897 65.9738 201.461 65.8412 201.873 65.5758C202.292 65.3104 202.502 64.9506 202.502 64.4965C202.502 64.1899 202.445 63.9392 202.333 63.7446C202.227 63.5441 202.012 63.3613 201.688 63.1962C201.369 63.031 200.889 62.8688 200.246 62.7096C199.532 62.5327 198.948 62.341 198.494 62.1346C198.046 61.9223 197.695 61.6481 197.442 61.3119C197.194 60.9758 197.07 60.5482 197.07 60.0292C197.07 59.5162 197.217 59.0679 197.512 58.6846C197.807 58.3013 198.22 58.0064 198.751 57.8C199.287 57.5936 199.907 57.4904 200.608 57.4904C201.31 57.4904 201.941 57.5847 202.502 57.7735C203.068 57.9563 203.563 58.204 203.988 58.5165L203.333 59.525C202.944 59.2596 202.534 59.0562 202.103 58.9146C201.679 58.7672 201.186 58.6935 200.626 58.6935C199.924 58.6935 199.411 58.8026 199.087 59.0208C198.768 59.2331 198.609 59.5309 198.609 59.9142C198.609 60.1914 198.683 60.4185 198.83 60.5954C198.984 60.7723 199.228 60.9315 199.565 61.0731C199.907 61.2087 200.414 61.3679 201.086 61.5508C201.758 61.7336 202.31 61.9371 202.74 62.1612C203.171 62.3853 203.507 62.6801 203.749 63.0458C203.991 63.4055 204.112 63.8655 204.112 64.4258C204.112 65.0568 203.929 65.5817 203.563 66.0004C203.197 66.4132 202.717 66.7169 202.121 66.9115C201.531 67.1062 200.886 67.2035 200.184 67.2035C198.721 67.2035 197.506 66.7847 196.539 65.9473L197.388 64.9654C197.766 65.2838 198.193 65.5315 198.671 65.7085C199.149 65.8854 199.653 65.9738 200.184 65.9738Z" fill="#00AAFF"/>
<path d="M77.7293 110.855H73.8287V124.188H66.4349V88.4412H81.1643C85.0067 88.4412 88.0535 89.4309 90.3046 91.4103C92.5557 93.3898 93.6813 96.1843 93.6813 99.7938C93.6813 102.588 92.9633 104.898 91.5272 106.722C90.0911 108.507 88.0923 109.71 85.5307 110.331L94.9621 124.188H86.5786L77.7293 110.855ZM73.8287 94.787V104.742H80.6985C82.5227 104.742 83.9199 104.296 84.8903 103.403C85.8606 102.511 86.3457 101.308 86.3457 99.7938C86.3457 98.2413 85.8606 97.0187 84.8903 96.1261C83.9199 95.2334 82.5227 94.787 80.6985 94.787H73.8287ZM119.676 124.188H112.748V122.79C112.282 123.256 111.448 123.683 110.245 124.071C109.041 124.459 107.761 124.653 106.402 124.653C103.646 124.653 101.337 123.896 99.474 122.383C97.6499 120.869 96.7378 118.812 96.7378 116.212C96.7378 113.766 97.6887 111.767 99.5905 110.215C101.531 108.662 103.937 107.886 106.81 107.886C107.896 107.886 109.022 108.041 110.186 108.352C111.351 108.662 112.205 109.012 112.748 109.4V107.479C112.748 106.314 112.379 105.363 111.642 104.626C110.943 103.85 109.895 103.462 108.498 103.462C106.557 103.462 105.277 104.277 104.656 105.907H97.7857C98.1738 103.5 99.3576 101.521 101.337 99.9685C103.355 98.3772 105.82 97.5815 108.731 97.5815C112.185 97.5815 114.863 98.4742 116.765 100.26C118.706 102.006 119.676 104.451 119.676 107.595V124.188ZM112.748 117.085V115.222C112.437 114.523 111.836 113.98 110.943 113.592C110.089 113.165 109.119 112.951 108.032 112.951C106.79 112.951 105.703 113.223 104.772 113.766C103.879 114.31 103.433 115.105 103.433 116.153C103.433 117.201 103.879 117.997 104.772 118.54C105.665 119.084 106.751 119.355 108.032 119.355C109.119 119.355 110.089 119.161 110.943 118.773C111.836 118.346 112.437 117.783 112.748 117.085ZM140.214 86.52V92.6329C139.554 92.1672 138.7 91.9343 137.652 91.9343C135.285 91.9343 134.101 93.1375 134.101 95.5439V98.1637H139.515V103.986H134.101V124.188H126.998V103.986H122.748V98.1637H126.998V95.0781C126.998 92.1672 127.833 89.8967 129.502 88.2665C131.171 86.6364 133.402 85.8213 136.197 85.8213C137.827 85.8213 139.166 86.0542 140.214 86.52ZM163.938 124.188H157.01V122.79C156.544 123.256 155.71 123.683 154.507 124.071C153.304 124.459 152.023 124.653 150.664 124.653C147.909 124.653 145.599 123.896 143.736 122.383C141.912 120.869 141 118.812 141 116.212C141 113.766 141.951 111.767 143.853 110.215C145.793 108.662 148.2 107.886 151.072 107.886C152.159 107.886 153.284 108.041 154.448 108.352C155.613 108.662 156.467 109.012 157.01 109.4V107.479C157.01 106.314 156.641 105.363 155.904 104.626C155.205 103.85 154.157 103.462 152.76 103.462C150.82 103.462 149.539 104.277 148.918 105.907H142.048C142.436 103.5 143.62 101.521 145.599 99.9685C147.617 98.3772 150.082 97.5815 152.993 97.5815C156.447 97.5815 159.125 98.4742 161.027 100.26C162.968 102.006 163.938 104.451 163.938 107.595V124.188ZM157.01 117.085V115.222C156.7 114.523 156.098 113.98 155.205 113.592C154.351 113.165 153.381 112.951 152.294 112.951C151.052 112.951 149.966 113.223 149.034 113.766C148.141 114.31 147.695 115.105 147.695 116.153C147.695 117.201 148.141 117.997 149.034 118.54C149.927 119.084 151.014 119.355 152.294 119.355C153.381 119.355 154.351 119.161 155.205 118.773C156.098 118.346 156.7 117.783 157.01 117.085ZM185.058 115.688H191.753C191.288 118.521 190.046 120.753 188.027 122.383C186.048 123.974 183.448 124.77 180.226 124.77C176.461 124.77 173.415 123.528 171.086 121.044C168.757 118.521 167.593 115.241 167.593 111.205C167.593 107.285 168.757 104.044 171.086 101.482C173.453 98.8817 176.461 97.5815 180.11 97.5815C183.836 97.5815 186.727 98.7653 188.784 101.133C190.88 103.462 191.928 106.586 191.928 110.506V112.718H174.579C174.695 114.659 175.258 116.192 176.267 117.318C177.276 118.404 178.596 118.948 180.226 118.948C182.865 118.948 184.476 117.861 185.058 115.688ZM180.168 103.462C177.218 103.462 175.413 105.092 174.754 108.352H184.825C184.787 106.916 184.36 105.752 183.545 104.859C182.73 103.927 181.604 103.462 180.168 103.462ZM203.15 86.3453V124.188H195.931V86.3453H203.15ZM232.221 110.855H228.32V124.188H220.926V88.4412H235.655C239.498 88.4412 242.545 89.4309 244.796 91.4103C247.047 93.3898 248.172 96.1843 248.172 99.7938C248.172 102.588 247.454 104.898 246.018 106.722C244.582 108.507 242.583 109.71 240.022 110.331L249.453 124.188H241.07L232.221 110.855ZM228.32 94.787V104.742H235.19C237.014 104.742 238.411 104.296 239.381 103.403C240.352 102.511 240.837 101.308 240.837 99.7938C240.837 98.2413 240.352 97.0187 239.381 96.1261C238.411 95.2334 237.014 94.787 235.19 94.787H228.32ZM260.077 98.1637V124.188H252.858V98.1637H260.077ZM260.717 90.6535C260.717 91.8567 260.29 92.8464 259.436 93.6227C258.621 94.3989 257.632 94.787 256.467 94.787C255.264 94.787 254.236 94.3989 253.382 93.6227C252.567 92.8464 252.159 91.8567 252.159 90.6535C252.159 89.4891 252.586 88.5188 253.44 87.7426C254.294 86.9275 255.303 86.52 256.467 86.52C257.632 86.52 258.621 86.9275 259.436 87.7426C260.29 88.5188 260.717 89.4891 260.717 90.6535ZM264.177 111.205C264.177 107.168 265.341 103.889 267.67 101.366C269.999 98.8429 273.007 97.5815 276.694 97.5815C279.876 97.5815 282.477 98.4354 284.495 100.143C286.513 101.851 287.716 104.121 288.105 106.955H281.002C280.808 105.946 280.323 105.169 279.546 104.626C278.809 104.044 277.858 103.753 276.694 103.753C275.064 103.753 273.763 104.432 272.793 105.79C271.823 107.149 271.338 108.954 271.338 111.205C271.338 113.417 271.823 115.202 272.793 116.561C273.763 117.919 275.064 118.598 276.694 118.598C277.858 118.598 278.809 118.327 279.546 117.783C280.323 117.201 280.808 116.406 281.002 115.396H288.105C287.716 118.23 286.513 120.5 284.495 122.208C282.516 123.916 279.915 124.77 276.694 124.77C273.007 124.77 269.999 123.508 267.67 120.985C265.341 118.463 264.177 115.202 264.177 111.205ZM290.373 111.205C290.373 107.168 291.537 103.889 293.866 101.366C296.195 98.8429 299.203 97.5815 302.89 97.5815C306.073 97.5815 308.673 98.4354 310.691 100.143C312.709 101.851 313.913 104.121 314.301 106.955H307.198C307.004 105.946 306.519 105.169 305.743 104.626C305.005 104.044 304.054 103.753 302.89 103.753C301.26 103.753 299.96 104.432 298.989 105.79C298.019 107.149 297.534 108.954 297.534 111.205C297.534 113.417 298.019 115.202 298.989 116.561C299.96 117.919 301.26 118.598 302.89 118.598C304.054 118.598 305.005 118.327 305.743 117.783C306.519 117.201 307.004 116.406 307.198 115.396H314.301C313.913 118.23 312.709 120.5 310.691 122.208C308.712 123.916 306.111 124.77 302.89 124.77C299.203 124.77 296.195 123.508 293.866 120.985C291.537 118.463 290.373 115.202 290.373 111.205ZM342.069 111.205C342.069 115.202 340.885 118.463 338.518 120.985C336.15 123.508 333.084 124.77 329.319 124.77C325.554 124.77 322.488 123.508 320.12 120.985C317.753 118.463 316.569 115.202 316.569 111.205C316.569 107.168 317.753 103.889 320.12 101.366C322.488 98.8429 325.554 97.5815 329.319 97.5815C333.084 97.5815 336.15 98.8429 338.518 101.366C340.885 103.889 342.069 107.168 342.069 111.205ZM334.908 111.205C334.908 108.954 334.403 107.149 333.394 105.79C332.424 104.393 331.066 103.694 329.319 103.694C327.572 103.694 326.195 104.393 325.185 105.79C324.215 107.149 323.73 108.954 323.73 111.205C323.73 113.417 324.215 115.222 325.185 116.619C326.195 117.977 327.572 118.657 329.319 118.657C331.066 118.657 332.424 117.977 333.394 116.619C334.403 115.222 334.908 113.417 334.908 111.205ZM345.184 123.256C344.331 122.363 343.904 121.257 343.904 119.938C343.904 118.618 344.331 117.531 345.184 116.677C346.077 115.785 347.164 115.338 348.445 115.338C349.726 115.338 350.793 115.785 351.647 116.677C352.539 117.531 352.986 118.618 352.986 119.938C352.986 121.257 352.539 122.363 351.647 123.256C350.793 124.149 349.726 124.595 348.445 124.595C347.164 124.595 346.077 124.149 345.184 123.256Z" fill="white"/>
<path opacity="0.7" d="M73.8869 147.254V183H66.4349V147.254H73.8869ZM78.9005 161.692V147.254H85.0717V161.692H78.9005ZM110.609 159.712C112.627 157.5 115.247 156.394 118.468 156.394C121.146 156.394 123.242 157.267 124.756 159.014C126.27 160.722 127.027 163.05 127.027 166V183H119.807V167.514C119.807 166.078 119.477 164.952 118.818 164.137C118.197 163.283 117.285 162.856 116.081 162.856C115.111 162.856 114.257 163.147 113.52 163.73C112.782 164.312 112.297 165.146 112.064 166.233V183H104.787V167.514C104.787 164.409 103.564 162.856 101.119 162.856C100.149 162.856 99.2756 163.167 98.4993 163.788C97.7619 164.37 97.2767 165.185 97.0439 166.233V183H89.8247V156.976H97.0439V159.13C98.4799 157.306 100.673 156.394 103.623 156.394C106.611 156.394 108.94 157.5 110.609 159.712ZM165.573 183H158.645V181.603C158.179 182.068 157.345 182.495 156.142 182.884C154.939 183.272 153.658 183.466 152.299 183.466C149.544 183.466 147.234 182.709 145.371 181.195C143.547 179.682 142.635 177.624 142.635 175.024C142.635 172.579 143.586 170.58 145.488 169.027C147.428 167.475 149.835 166.699 152.707 166.699C153.794 166.699 154.919 166.854 156.084 167.164C157.248 167.475 158.102 167.824 158.645 168.212V166.291C158.645 165.127 158.277 164.176 157.539 163.438C156.84 162.662 155.793 162.274 154.395 162.274C152.455 162.274 151.174 163.089 150.553 164.719H143.683C144.071 162.313 145.255 160.333 147.234 158.781C149.253 157.19 151.717 156.394 154.628 156.394C158.082 156.394 160.761 157.287 162.662 159.072C164.603 160.819 165.573 163.264 165.573 166.408V183ZM158.645 175.897V174.034C158.335 173.336 157.733 172.792 156.84 172.404C155.987 171.977 155.016 171.764 153.93 171.764C152.688 171.764 151.601 172.035 150.669 172.579C149.777 173.122 149.33 173.918 149.33 174.966C149.33 176.014 149.777 176.809 150.669 177.353C151.562 177.896 152.649 178.168 153.93 178.168C155.016 178.168 155.987 177.974 156.84 177.586C157.733 177.159 158.335 176.596 158.645 175.897ZM199.322 183V180.846C198.701 181.583 197.789 182.224 196.586 182.767C195.382 183.311 194.121 183.582 192.801 183.582C189.153 183.582 186.262 182.301 184.127 179.74C182.031 177.139 180.983 173.898 180.983 170.017C180.983 166.136 182.031 162.895 184.127 160.295C186.262 157.694 189.153 156.394 192.801 156.394C194.121 156.394 195.382 156.666 196.586 157.209C197.789 157.752 198.701 158.393 199.322 159.13V145.158H206.599V183H199.322ZM199.322 174.267V165.709C198.895 164.816 198.235 164.098 197.342 163.555C196.45 162.973 195.479 162.682 194.432 162.682C192.53 162.682 191.016 163.38 189.89 164.778C188.765 166.136 188.202 167.883 188.202 170.017C188.202 172.152 188.765 173.898 189.89 175.257C191.016 176.615 192.53 177.295 194.432 177.295C195.518 177.295 196.489 177.023 197.342 176.479C198.235 175.897 198.895 175.16 199.322 174.267ZM228.056 174.5H234.751C234.285 177.333 233.043 179.565 231.025 181.195C229.046 182.787 226.445 183.582 223.224 183.582C219.459 183.582 216.412 182.34 214.084 179.856C211.755 177.333 210.59 174.054 210.59 170.017C210.59 166.097 211.755 162.856 214.084 160.295C216.451 157.694 219.459 156.394 223.107 156.394C226.833 156.394 229.725 157.578 231.782 159.945C233.878 162.274 234.926 165.399 234.926 169.319V171.531H217.577C217.693 173.472 218.256 175.005 219.265 176.13C220.274 177.217 221.594 177.76 223.224 177.76C225.863 177.76 227.474 176.674 228.056 174.5ZM223.166 162.274C220.216 162.274 218.411 163.904 217.751 167.164H227.823C227.784 165.728 227.357 164.564 226.542 163.671C225.727 162.74 224.602 162.274 223.166 162.274ZM252.798 183H245.812L235.973 156.976H243.541L249.538 174.267L255.418 156.976H262.695L252.798 183ZM281.074 174.5H287.769C287.303 177.333 286.061 179.565 284.043 181.195C282.064 182.787 279.463 183.582 276.242 183.582C272.477 183.582 269.43 182.34 267.101 179.856C264.773 177.333 263.608 174.054 263.608 170.017C263.608 166.097 264.773 162.856 267.101 160.295C269.469 157.694 272.477 156.394 276.125 156.394C279.851 156.394 282.743 157.578 284.8 159.945C286.896 162.274 287.944 165.399 287.944 169.319V171.531H270.594C270.711 173.472 271.274 175.005 272.283 176.13C273.292 177.217 274.612 177.76 276.242 177.76C278.881 177.76 280.492 176.674 281.074 174.5ZM276.183 162.274C273.234 162.274 271.429 163.904 270.769 167.164H280.841C280.802 165.728 280.375 164.564 279.56 163.671C278.745 162.74 277.619 162.274 276.183 162.274ZM299.165 145.158V183H291.946V145.158H299.165ZM328.765 170.017C328.765 174.015 327.581 177.275 325.214 179.798C322.846 182.321 319.78 183.582 316.015 183.582C312.25 183.582 309.184 182.321 306.816 179.798C304.449 177.275 303.265 174.015 303.265 170.017C303.265 165.981 304.449 162.701 306.816 160.178C309.184 157.655 312.25 156.394 316.015 156.394C319.78 156.394 322.846 157.655 325.214 160.178C327.581 162.701 328.765 165.981 328.765 170.017ZM321.604 170.017C321.604 167.766 321.099 165.961 320.09 164.603C319.12 163.206 317.762 162.507 316.015 162.507C314.268 162.507 312.891 163.206 311.882 164.603C310.911 165.961 310.426 167.766 310.426 170.017C310.426 172.23 310.911 174.034 311.882 175.432C312.891 176.79 314.268 177.469 316.015 177.469C317.762 177.469 319.12 176.79 320.09 175.432C321.099 174.034 321.604 172.23 321.604 170.017ZM340.016 180.846V192.606H332.797V156.976H340.016V159.13C340.637 158.393 341.549 157.752 342.752 157.209C343.956 156.666 345.217 156.394 346.537 156.394C350.185 156.394 353.077 157.714 355.211 160.353C357.346 162.953 358.413 166.175 358.413 170.017C358.413 173.86 357.346 177.081 355.211 179.682C353.077 182.282 350.185 183.582 346.537 183.582C345.217 183.582 343.956 183.311 342.752 182.767C341.549 182.224 340.637 181.583 340.016 180.846ZM340.016 165.709V174.267C340.443 175.16 341.103 175.897 341.996 176.479C342.888 177.023 343.859 177.295 344.907 177.295C346.808 177.295 348.322 176.615 349.448 175.257C350.573 173.898 351.136 172.152 351.136 170.017C351.136 167.883 350.573 166.136 349.448 164.778C348.322 163.38 346.808 162.682 344.907 162.682C343.859 162.682 342.888 162.973 341.996 163.555C341.142 164.098 340.482 164.816 340.016 165.709ZM378.467 174.5H385.163C384.697 177.333 383.455 179.565 381.437 181.195C379.457 182.787 376.857 183.582 373.635 183.582C369.87 183.582 366.824 182.34 364.495 179.856C362.166 177.333 361.002 174.054 361.002 170.017C361.002 166.097 362.166 162.856 364.495 160.295C366.862 157.694 369.87 156.394 373.519 156.394C377.245 156.394 380.136 157.578 382.193 159.945C384.289 162.274 385.337 165.399 385.337 169.319V171.531H367.988C368.104 173.472 368.667 175.005 369.676 176.13C370.685 177.217 372.005 177.76 373.635 177.76C376.274 177.76 377.885 176.674 378.467 174.5ZM373.577 162.274C370.627 162.274 368.822 163.904 368.163 167.164H378.235C378.196 165.728 377.769 164.564 376.954 163.671C376.139 162.74 375.013 162.274 373.577 162.274ZM405.117 156.86V164.079C404.147 163.497 402.944 163.206 401.507 163.206C400.265 163.206 399.198 163.536 398.305 164.195C397.413 164.816 396.831 165.709 396.559 166.873V183H389.34V156.976H396.559V159.538C397.801 157.442 399.741 156.394 402.381 156.394C403.662 156.394 404.574 156.549 405.117 156.86ZM442.29 183H435.362V181.603C434.896 182.068 434.061 182.495 432.858 182.884C431.655 183.272 430.374 183.466 429.016 183.466C426.26 183.466 423.951 182.709 422.088 181.195C420.264 179.682 419.352 177.624 419.352 175.024C419.352 172.579 420.302 170.58 422.204 169.027C424.145 167.475 426.551 166.699 429.423 166.699C430.51 166.699 431.636 166.854 432.8 167.164C433.964 167.475 434.818 167.824 435.362 168.212V166.291C435.362 165.127 434.993 164.176 434.256 163.438C433.557 162.662 432.509 162.274 431.112 162.274C429.171 162.274 427.89 163.089 427.269 164.719H420.399C420.788 162.313 421.971 160.333 423.951 158.781C425.969 157.19 428.434 156.394 431.345 156.394C434.799 156.394 437.477 157.287 439.379 159.072C441.319 160.819 442.29 163.264 442.29 166.408V183ZM435.362 175.897V174.034C435.051 173.336 434.45 172.792 433.557 172.404C432.703 171.977 431.733 171.764 430.646 171.764C429.404 171.764 428.317 172.035 427.386 172.579C426.493 173.122 426.047 173.918 426.047 174.966C426.047 176.014 426.493 176.809 427.386 177.353C428.278 177.896 429.365 178.168 430.646 178.168C431.733 178.168 432.703 177.974 433.557 177.586C434.45 177.159 435.051 176.596 435.362 175.897ZM447.574 183V156.976H454.794V159.363C456.501 157.384 458.83 156.394 461.78 156.394C464.691 156.394 466.942 157.267 468.533 159.014C470.163 160.76 470.978 163.089 470.978 166V183H463.759V167.514C463.759 166.117 463.391 165.01 462.653 164.195C461.954 163.341 460.907 162.915 459.509 162.915C458.384 162.915 457.375 163.244 456.482 163.904C455.628 164.525 455.065 165.399 454.794 166.524V183H447.574ZM493.095 183V180.846C492.474 181.583 491.562 182.224 490.358 182.767C489.155 183.311 487.894 183.582 486.574 183.582C482.926 183.582 480.034 182.301 477.9 179.74C475.804 177.139 474.756 173.898 474.756 170.017C474.756 166.136 475.804 162.895 477.9 160.295C480.034 157.694 482.926 156.394 486.574 156.394C487.894 156.394 489.155 156.666 490.358 157.209C491.562 157.752 492.474 158.393 493.095 159.13V145.158H500.372V183H493.095ZM493.095 174.267V165.709C492.668 164.816 492.008 164.098 491.115 163.555C490.223 162.973 489.252 162.682 488.204 162.682C486.302 162.682 484.789 163.38 483.663 164.778C482.538 166.136 481.975 167.883 481.975 170.017C481.975 172.152 482.538 173.898 483.663 175.257C484.789 176.615 486.302 177.295 488.204 177.295C489.291 177.295 490.261 177.023 491.115 176.479C492.008 175.897 492.668 175.16 493.095 174.267ZM73.3629 238.846V241H66.0856V203.158H73.3629V217.13C73.9839 216.393 74.896 215.752 76.0992 215.209C77.3024 214.666 78.5638 214.394 79.8834 214.394C83.5318 214.394 86.4039 215.694 88.4998 218.295C90.6345 220.895 91.7018 224.136 91.7018 228.017C91.7018 231.898 90.6345 235.139 88.4998 237.74C86.4039 240.301 83.5318 241.582 79.8834 241.582C78.5638 241.582 77.3024 241.311 76.0992 240.767C74.896 240.224 73.9839 239.583 73.3629 238.846ZM73.3629 223.709V232.267C73.7899 233.16 74.4303 233.897 75.2842 234.479C76.1768 235.023 77.1666 235.295 78.2533 235.295C80.1551 235.295 81.6688 234.615 82.7944 233.257C83.9199 231.898 84.4827 230.152 84.4827 228.017C84.4827 225.883 83.9199 224.136 82.7944 222.778C81.6688 221.38 80.1551 220.682 78.2533 220.682C77.2054 220.682 76.2351 220.973 75.3424 221.555C74.4497 222.098 73.7899 222.816 73.3629 223.709ZM118.806 214.976V241H111.587V238.613C109.801 240.592 107.473 241.582 104.6 241.582C101.728 241.582 99.4772 240.709 97.8471 238.962C96.2558 237.216 95.4601 234.887 95.4601 231.976V214.976H102.679V230.521C102.679 231.957 103.029 233.082 103.727 233.897C104.426 234.712 105.474 235.12 106.871 235.12C107.997 235.12 108.986 234.809 109.84 234.188C110.694 233.529 111.257 232.636 111.529 231.51V214.976H118.806ZM131.668 214.976V241H124.449V214.976H131.668ZM132.309 207.466C132.309 208.669 131.882 209.659 131.028 210.435C130.213 211.211 129.223 211.6 128.059 211.6C126.855 211.6 125.827 211.211 124.973 210.435C124.158 209.659 123.75 208.669 123.75 207.466C123.75 206.302 124.177 205.331 125.031 204.555C125.885 203.74 126.894 203.332 128.059 203.332C129.223 203.332 130.213 203.74 131.028 204.555C131.882 205.331 132.309 206.302 132.309 207.466ZM144.617 203.158V241H137.398V203.158H144.617ZM167.056 241V238.846C166.435 239.583 165.523 240.224 164.32 240.767C163.117 241.311 161.855 241.582 160.536 241.582C156.887 241.582 153.996 240.301 151.861 237.74C149.765 235.139 148.717 231.898 148.717 228.017C148.717 224.136 149.765 220.895 151.861 218.295C153.996 215.694 156.887 214.394 160.536 214.394C161.855 214.394 163.117 214.666 164.32 215.209C165.523 215.752 166.435 216.393 167.056 217.13V203.158H174.333V241H167.056ZM167.056 232.267V223.709C166.629 222.816 165.969 222.098 165.077 221.555C164.184 220.973 163.214 220.682 162.166 220.682C160.264 220.682 158.75 221.38 157.625 222.778C156.499 224.136 155.936 225.883 155.936 228.017C155.936 230.152 156.499 231.898 157.625 233.257C158.75 234.615 160.264 235.295 162.166 235.295C163.252 235.295 164.223 235.023 165.077 234.479C165.969 233.897 166.629 233.16 167.056 232.267ZM193.282 233.14V220.798H189.323V214.976H193.282V207.932H200.443V214.976H206.148V220.798H200.443V232.209C200.443 234.188 201.432 235.178 203.412 235.178C204.615 235.178 205.663 234.887 206.556 234.305V240.709C205.546 241.252 203.994 241.524 201.898 241.524C199.181 241.524 197.066 240.825 195.552 239.428C194.039 238.031 193.282 235.935 193.282 233.14ZM211.197 241V203.158H218.416V217.363C220.124 215.384 222.453 214.394 225.403 214.394C228.314 214.394 230.565 215.267 232.156 217.014C233.786 218.76 234.601 221.089 234.601 224V241H227.382V225.514C227.382 224.117 227.013 223.01 226.276 222.195C225.577 221.341 224.529 220.915 223.132 220.915C222.006 220.915 220.997 221.244 220.105 221.904C219.251 222.525 218.688 223.399 218.416 224.524V241H211.197ZM247.228 214.976V241H240.009V214.976H247.228ZM247.868 207.466C247.868 208.669 247.441 209.659 246.587 210.435C245.772 211.211 244.783 211.6 243.618 211.6C242.415 211.6 241.386 211.211 240.533 210.435C239.718 209.659 239.31 208.669 239.31 207.466C239.31 206.302 239.737 205.331 240.591 204.555C241.445 203.74 242.454 203.332 243.618 203.332C244.783 203.332 245.772 203.74 246.587 204.555C247.441 205.331 247.868 206.302 247.868 207.466ZM252.958 241V214.976H260.177V217.363C261.885 215.384 264.213 214.394 267.163 214.394C270.074 214.394 272.325 215.267 273.917 217.014C275.547 218.76 276.362 221.089 276.362 224V241H269.143V225.514C269.143 224.117 268.774 223.01 268.036 222.195C267.338 221.341 266.29 220.915 264.893 220.915C263.767 220.915 262.758 221.244 261.865 221.904C261.011 222.525 260.449 223.399 260.177 224.524V241H252.958ZM298.362 239.253V237.74C296.887 239.525 294.752 240.418 291.958 240.418C288.348 240.418 285.476 239.156 283.341 236.634C281.206 234.111 280.139 231.025 280.139 227.377C280.139 223.767 281.206 220.701 283.341 218.178C285.476 215.655 288.348 214.394 291.958 214.394C294.713 214.394 296.848 215.267 298.362 217.014V214.976H305.522V238.147C305.522 242.455 304.358 245.696 302.029 247.87C299.701 250.082 296.615 251.188 292.773 251.188C289.396 251.188 286.621 250.373 284.447 248.743C282.313 247.113 281.051 244.842 280.663 241.932H287.649C288.232 244.377 289.939 245.599 292.773 245.599C296.499 245.599 298.362 243.484 298.362 239.253ZM298.362 231.627V223.127C297.275 221.341 295.645 220.449 293.471 220.449C291.569 220.449 290.075 221.089 288.988 222.37C287.902 223.651 287.358 225.32 287.358 227.377C287.358 229.434 287.902 231.122 288.988 232.442C290.075 233.723 291.569 234.363 293.471 234.363C294.519 234.363 295.47 234.111 296.324 233.606C297.217 233.063 297.896 232.403 298.362 231.627ZM309.518 233.257H316.679C317.261 235.159 318.716 236.11 321.045 236.11C323.49 236.11 324.713 235.256 324.713 233.548C324.713 232.966 324.499 232.519 324.072 232.209C323.684 231.86 323.024 231.569 322.093 231.336L316.853 230.171C312.351 229.123 310.1 226.678 310.1 222.836C310.1 220.352 311.09 218.333 313.069 216.781C315.049 215.19 317.513 214.394 320.463 214.394C323.684 214.394 326.207 215.112 328.031 216.548C329.894 217.945 331.059 219.905 331.524 222.428H324.655C324.111 220.72 322.753 219.867 320.579 219.867C319.648 219.867 318.833 220.08 318.134 220.507C317.474 220.934 317.144 221.536 317.144 222.312C317.144 223.282 317.921 223.961 319.473 224.349L324.829 225.572C329.448 226.698 331.757 229.22 331.757 233.14C331.757 235.741 330.748 237.798 328.73 239.312C326.75 240.825 324.208 241.582 321.103 241.582C317.882 241.582 315.243 240.864 313.186 239.428C311.128 237.953 309.906 235.896 309.518 233.257ZM363.046 203.332V209.445C362.386 208.98 361.533 208.747 360.485 208.747C358.117 208.747 356.933 209.95 356.933 212.356V214.976H362.348V220.798H356.933V241H349.831V220.798H345.581V214.976H349.831V211.891C349.831 208.98 350.665 206.709 352.334 205.079C354.003 203.449 356.235 202.634 359.029 202.634C360.659 202.634 361.998 202.867 363.046 203.332ZM389.672 228.017C389.672 232.015 388.488 235.275 386.12 237.798C383.753 240.321 380.687 241.582 376.922 241.582C373.157 241.582 370.091 240.321 367.723 237.798C365.356 235.275 364.172 232.015 364.172 228.017C364.172 223.981 365.356 220.701 367.723 218.178C370.091 215.655 373.157 214.394 376.922 214.394C380.687 214.394 383.753 215.655 386.12 218.178C388.488 220.701 389.672 223.981 389.672 228.017ZM382.511 228.017C382.511 225.766 382.006 223.961 380.997 222.603C380.027 221.206 378.668 220.507 376.922 220.507C375.175 220.507 373.797 221.206 372.788 222.603C371.818 223.961 371.333 225.766 371.333 228.017C371.333 230.23 371.818 232.034 372.788 233.432C373.797 234.79 375.175 235.469 376.922 235.469C378.668 235.469 380.027 234.79 380.997 233.432C382.006 232.034 382.511 230.23 382.511 228.017ZM409.481 214.86V222.079C408.511 221.497 407.308 221.206 405.872 221.206C404.63 221.206 403.562 221.536 402.67 222.195C401.777 222.816 401.195 223.709 400.923 224.873V241H393.704V214.976H400.923V217.538C402.165 215.442 404.106 214.394 406.745 214.394C408.026 214.394 408.938 214.549 409.481 214.86ZM426.859 233.14V220.798H422.901V214.976H426.859V207.932H434.02V214.976H439.726V220.798H434.02V232.209C434.02 234.188 435.01 235.178 436.99 235.178C438.193 235.178 439.241 234.887 440.133 234.305V240.709C439.124 241.252 437.572 241.524 435.476 241.524C432.759 241.524 430.644 240.825 429.13 239.428C427.616 238.031 426.859 235.935 426.859 233.14ZM444.775 241V203.158H451.994V217.363C453.702 215.384 456.031 214.394 458.98 214.394C461.891 214.394 464.142 215.267 465.734 217.014C467.364 218.76 468.179 221.089 468.179 224V241H460.96V225.514C460.96 224.117 460.591 223.01 459.854 222.195C459.155 221.341 458.107 220.915 456.71 220.915C455.584 220.915 454.575 221.244 453.682 221.904C452.829 222.525 452.266 223.399 451.994 224.524V241H444.775ZM489.422 232.5H496.117C495.651 235.333 494.409 237.565 492.391 239.195C490.412 240.787 487.811 241.582 484.59 241.582C480.825 241.582 477.778 240.34 475.449 237.856C473.121 235.333 471.956 232.054 471.956 228.017C471.956 224.097 473.121 220.856 475.449 218.295C477.817 215.694 480.825 214.394 484.473 214.394C488.199 214.394 491.091 215.578 493.148 217.945C495.244 220.274 496.292 223.399 496.292 227.319V229.531H478.943C479.059 231.472 479.622 233.005 480.631 234.13C481.64 235.217 482.96 235.76 484.59 235.76C487.229 235.76 488.84 234.674 489.422 232.5ZM484.532 220.274C481.582 220.274 479.777 221.904 479.117 225.164H489.189C489.15 223.728 488.723 222.564 487.908 221.671C487.093 220.74 485.968 220.274 484.532 220.274ZM531.32 214.976L535.628 231.569L540.285 214.976H547.272L539.354 241H532.717L528.467 225.048L524.217 241H517.58L509.662 214.976H516.882L521.539 231.569L525.789 214.976H531.32ZM566.134 232.5H572.829C572.364 235.333 571.122 237.565 569.103 239.195C567.124 240.787 564.523 241.582 561.302 241.582C557.537 241.582 554.49 240.34 552.162 237.856C549.833 235.333 548.669 232.054 548.669 228.017C548.669 224.097 549.833 220.856 552.162 218.295C554.529 215.694 557.537 214.394 561.186 214.394C564.912 214.394 567.803 215.578 569.86 217.945C571.956 220.274 573.004 223.399 573.004 227.319V229.531H555.655C555.771 231.472 556.334 233.005 557.343 234.13C558.352 235.217 559.672 235.76 561.302 235.76C563.941 235.76 565.552 234.674 566.134 232.5ZM561.244 220.274C558.294 220.274 556.489 221.904 555.829 225.164H565.901C565.862 223.728 565.436 222.564 564.62 221.671C563.805 220.74 562.68 220.274 561.244 220.274ZM584.226 238.846V241H576.948V203.158H584.226V217.13C584.847 216.393 585.759 215.752 586.962 215.209C588.165 214.666 589.427 214.394 590.746 214.394C594.395 214.394 597.267 215.694 599.363 218.295C601.497 220.895 602.565 224.136 602.565 228.017C602.565 231.898 601.497 235.139 599.363 237.74C597.267 240.301 594.395 241.582 590.746 241.582C589.427 241.582 588.165 241.311 586.962 240.767C585.759 240.224 584.847 239.583 584.226 238.846ZM584.226 223.709V232.267C584.653 233.16 585.293 233.897 586.147 234.479C587.04 235.023 588.029 235.295 589.116 235.295C591.018 235.295 592.532 234.615 593.657 233.257C594.783 231.898 595.345 230.152 595.345 228.017C595.345 225.883 594.783 224.136 593.657 222.778C592.532 221.38 591.018 220.682 589.116 220.682C588.068 220.682 587.098 220.973 586.205 221.555C585.312 222.098 584.653 222.816 584.226 223.709ZM605.697 240.068C604.844 239.176 604.417 238.07 604.417 236.75C604.417 235.43 604.844 234.344 605.697 233.49C606.59 232.597 607.677 232.151 608.958 232.151C610.239 232.151 611.306 232.597 612.16 233.49C613.052 234.344 613.499 235.43 613.499 236.75C613.499 238.07 613.052 239.176 612.16 240.068C611.306 240.961 610.239 241.408 608.958 241.408C607.677 241.408 606.59 240.961 605.697 240.068Z" fill="white"/>
</g>
<defs>
<filter id="filter0_f_2_4" x="-319" y="-367" width="665" height="665" filterUnits="userSpaceOnUse" color-interpolation-filters="sRGB">
<feFlood flood-opacity="0" result="BackgroundImageFix"/>
<feBlend mode="normal" in="SourceGraphic" in2="BackgroundImageFix" result="shape"/>
<feGaussianBlur stdDeviation="110" result="effect1_foregroundBlur_2_4"/>
</filter>
<filter id="filter1_f_2_4" x="-236" y="30" width="709" height="709" filterUnits="userSpaceOnUse" color-interpolation-filters="sRGB">
<feFlood flood-opacity="0" result="BackgroundImageFix"/>
<feBlend mode="normal" in="SourceGraphic" in2="BackgroundImageFix" result="shape"/>
<feGaussianBlur stdDeviation="110" result="effect1_foregroundBlur_2_4"/>
</filter>
<filter id="filter2_f_2_4" x="468" y="-60" width="743" height="743" filterUnits="userSpaceOnUse" color-interpolation-filters="sRGB">
<feFlood flood-opacity="0" result="BackgroundImageFix"/>
<feBlend mode="normal" in="SourceGraphic" in2="BackgroundImageFix" result="shape"/>
<feGaussianBlur stdDeviation="110" result="effect1_foregroundBlur_2_4"/>
</filter>
<clipPath id="clip0_2_4">
<rect width="820" height="312" fill="white"/>
</clipPath>
</defs>
</svg>
