<svg width="247" height="247" viewBox="0 0 247 247" fill="none" xmlns="http://www.w3.org/2000/svg">
<path d="M16.9038 1.92969L36.3068 219.759L123.37 244.034L210.677 219.67L230.096 1.92969H16.9038ZM189.786 51.8353L183.328 124.401L183.347 124.793L183.32 125.694V125.686L178.731 176.426L178.226 180.933L123.5 196.07V196.072L123.457 196.108L68.8259 180.887L65.1267 138.938H91.9165L93.8173 160.268L123.507 168.315L123.5 168.331V168.327L153.3 160.166L156.449 125.43H94.153L93.6185 119.558L92.4009 105.801L91.7622 98.4141H158.817L161.256 71.3984H59.1254L58.5908 65.5303L57.3751 51.7697L56.7345 44.3828H190.425L189.786 51.8353Z" fill="url(#paint0_linear_461_152)"/>
<defs>
<linearGradient id="paint0_linear_461_152" x1="123.5" y1="1.92969" x2="123.5" y2="244.034" gradientUnits="userSpaceOnUse">
<stop stop-color="#33A0CA"/>
<stop offset="1" stop-color="#2E65D4"/>
</linearGradient>
</defs>
</svg>
