<svg width="248" height="247" viewBox="0 0 248 247" fill="none" xmlns="http://www.w3.org/2000/svg">
<path d="M17.4995 3.85938L36.8842 220.164L123.87 244.094L211.096 220.191L230.501 3.85938H17.4995ZM190.181 55.0713L188.966 68.9111L188.432 75.2578H86.3931L88.8286 102.273H186.006L185.355 108.971L179.091 178.67L178.63 183.05L124 198.003V198.007L123.934 198.042L69.3412 183.718L65.6348 142.797H92.4013L94.2981 163.867L123.917 171.742H124V170.689L153.75 163.211L156.858 129.289H64.4432L57.8886 55.7352L57.2512 48.2422H190.821L190.181 55.0713Z" fill="url(#paint0_linear_461_147)" fill-opacity="0.9"/>
<defs>
<linearGradient id="paint0_linear_461_147" x1="124" y1="3.85937" x2="124" y2="244.094" gradientUnits="userSpaceOnUse">
<stop stop-color="#FF0F37"/>
<stop offset="1" stop-color="#FF4B2B"/>
</linearGradient>
</defs>
</svg>
