<svg width="225" height="225" viewBox="0 0 225 225" fill="none" xmlns="http://www.w3.org/2000/svg">
<path d="M27.5156 1.75781C14.2608 1.75781 3.51562 12.503 3.51562 25.7578V197.484C3.51562 210.739 14.2608 221.484 27.5156 221.484H199.242C212.497 221.484 223.242 210.739 223.242 197.484V25.7578C223.242 12.503 212.497 1.75781 199.242 1.75781H27.5156ZM119.74 188.988C116.497 195.578 110.306 199.907 103.133 201.997C92.1094 204.529 81.566 203.085 73.7227 198.378C68.4738 195.158 64.3746 190.201 61.592 184.489L78.3264 174.241C78.4723 174.303 78.9117 175.097 79.4988 176.124C81.6328 179.699 83.4732 182.231 87.0908 184.008C90.6451 185.221 98.448 185.996 101.461 179.742C103.301 176.56 102.716 166.333 102.716 155.018C102.714 137.238 102.797 119.531 102.797 101.953H123.379C123.379 121.289 123.485 139.602 123.379 158.47C123.423 170.037 124.427 180.348 119.74 188.988ZM205.124 183.173C197.97 207.645 158.082 208.44 142.142 192.271C138.774 188.466 136.663 186.478 134.654 182.085C143.125 177.212 143.125 177.212 151.367 172.443C155.844 179.325 159.984 183.11 167.432 184.658C177.536 185.892 187.701 182.421 185.421 171.689C183.078 162.925 164.732 160.792 152.246 151.42C139.57 142.907 136.6 122.221 147.016 110.401C150.488 106.029 156.408 102.767 162.621 101.199L169.103 100.361C181.55 100.109 189.33 103.396 195.042 109.774C196.631 111.384 197.928 113.121 200.354 116.884C193.723 121.11 193.744 121.069 184.247 127.218C182.218 122.848 178.852 120.106 175.294 118.914C169.771 117.241 162.807 119.06 161.362 124.896C160.861 126.694 160.965 128.368 161.761 131.338C163.999 136.441 171.508 138.66 178.244 141.755C197.634 149.62 204.182 158.052 205.792 168.089C207.343 176.73 205.418 182.336 205.124 183.173Z" fill="url(#paint0_linear_461_154)"/>
<defs>
<linearGradient id="paint0_linear_461_154" x1="113.379" y1="1.75781" x2="113.379" y2="221.484" gradientUnits="userSpaceOnUse">
<stop stop-color="#FFCC63"/>
<stop offset="1" stop-color="#FFA83F"/>
</linearGradient>
</defs>
</svg>
