<svg width="248" height="247" viewBox="0 0 248 247" fill="none" xmlns="http://www.w3.org/2000/svg">
<path d="M223.781 0H24.2188C10.8431 0 0 10.7994 0 24.1211V222.879C0 236.201 10.8431 247 24.2188 247H223.781C237.157 247 248 236.201 248 222.879V24.1211C248 10.7994 237.157 0 223.781 0Z" fill="url(#paint0_linear_503_127)"/>
<path fill-rule="evenodd" clip-rule="evenodd" d="M153.547 196.346V220.467C157.47 222.493 162.266 223.988 167.594 225.002C172.922 226.015 178.734 226.497 184.547 226.497C190.359 226.497 195.688 225.966 201.016 224.857C206.344 223.747 210.703 221.914 214.578 219.55C218.502 216.993 221.844 213.761 223.781 209.419C225.719 205.078 227.22 200.253 227.22 193.982C227.22 189.592 226.542 185.781 225.234 182.404C223.927 179.027 222.038 176.132 219.422 173.72C216.952 171.163 214.094 168.896 210.703 166.966C207.313 165.037 203.438 163.01 199.078 161.177C195.881 159.875 193.266 158.62 190.359 157.366C187.841 156.112 185.661 154.857 184.063 153.603C182.27 152.301 180.914 150.95 179.945 149.551C178.977 148.104 178.492 146.512 178.492 144.727C178.492 143.086 178.923 141.591 179.8 140.24C180.677 138.889 181.883 137.78 183.433 136.815C184.983 135.85 186.92 135.126 189.245 134.596C191.522 134.065 194.041 133.824 196.995 133.824C199.03 133.824 201.161 133.973 203.292 134.277C205.52 134.581 207.797 135.049 210.073 135.676C212.35 136.303 214.578 137.075 216.855 138.04C218.986 139.005 220.972 140.115 222.667 141.369V118.695C218.986 117.296 214.917 116.235 210.558 115.559C206.198 114.884 201.355 114.546 195.542 114.546C189.73 114.546 184.402 115.173 179.073 116.379C173.745 117.586 169.386 119.515 165.511 122.169C161.588 124.774 158.73 127.958 156.308 132.299C154.031 136.352 152.917 140.983 152.917 146.772C152.917 154.008 155 160.28 159.214 165.104C163.38 170.411 169.87 174.27 178.105 178.129C181.447 179.48 184.402 180.831 187.308 182.134C190.214 183.436 192.636 184.787 194.573 186.186C196.656 187.585 198.303 189.129 199.417 190.769C200.628 192.409 201.258 194.339 201.258 196.558C201.258 198.102 200.88 199.549 200.144 200.9C199.408 202.251 198.255 203.408 196.705 204.373C195.155 205.338 193.266 206.11 190.892 206.689C188.616 207.22 186.048 207.509 182.658 207.509C177.33 207.509 172.002 206.592 167.158 204.759C161.83 202.926 156.986 200.176 152.627 196.558L153.547 196.346ZM112.859 137.008H143.859V117.229H57.1562V137.008H88.1563V225.291H112.859V137.008Z" fill="white"/>
<defs>
<linearGradient id="paint0_linear_503_127" x1="124" y1="0" x2="124" y2="247" gradientUnits="userSpaceOnUse">
<stop stop-color="#33A0CA"/>
<stop offset="1" stop-color="#2E65D4"/>
</linearGradient>
</defs>
</svg>
