<svg xmlns="http://www.w3.org/2000/svg" xmlns:xlink="http://www.w3.org/1999/xlink" width="318.467" height="250.273" viewBox="0 0 318.467 250.273">
  <defs>
    <linearGradient id="linear-gradient" x1="0.305" y1="-0.081" x2="0.453" y2="1.214" gradientUnits="objectBoundingBox">
      <stop offset="0" stop-color="#cc528c"/>
      <stop offset="1" stop-color="#f05"/>
    </linearGradient>
  </defs>
  <path id="Sass_Logo_Color" d="M258.3,129.307a62.112,62.112,0,0,0-27.179,6.3c-2.795-5.534-5.589-10.466-6.082-14.083-.548-4.219-1.206-6.795-.548-11.836s3.617-12.22,3.562-12.768-.658-3.123-6.685-3.178-11.233,1.151-11.836,2.74a66.122,66.122,0,0,0-2.521,8.932c-1.041,5.48-12.055,25.042-18.357,35.289-2.027-4-3.781-7.507-4.165-10.3-.548-4.219-1.206-6.795-.548-11.836s3.617-12.22,3.562-12.768-.658-3.123-6.685-3.178-11.233,1.151-11.836,2.74-1.26,5.315-2.521,8.932-15.891,36.275-19.727,44.714c-1.973,4.329-3.671,7.781-4.877,10.137h0a2.5,2.5,0,0,1-.219.438c-1.041,2.027-1.644,3.123-1.644,3.123v.055c-.822,1.479-1.7,2.849-2.137,2.849-.329,0-.932-3.945.11-9.315,2.192-11.343,7.4-28.987,7.343-29.59,0-.329.986-3.4-3.4-4.986-4.274-1.589-5.808,1.041-6.192,1.041s-.658.932-.658.932,4.767-19.836-9.1-19.836c-8.658,0-20.6,9.48-26.521,18.028-3.726,2.027-11.672,6.356-20.165,11.014-3.233,1.808-6.576,3.617-9.7,5.315-.219-.219-.438-.493-.658-.712-16.768-17.918-47.782-30.576-46.467-54.632.493-8.767,3.507-31.782,59.563-59.728C128.156,10.4,164.87,16.7,171.226,30.674c9.1,19.946-19.672,56.988-67.345,62.358-18.192,2.027-27.727-4.986-30.138-7.617-2.521-2.74-2.9-2.9-3.836-2.356-1.534.822-.548,3.288,0,4.712,1.425,3.726,7.288,10.3,17.206,13.535,8.767,2.849,30.083,4.438,55.892-5.534C171.884,84.593,194.46,53.524,187.829,27.5,181.2,1.084,137.362-7.629,95.881,7.112c-24.658,8.767-51.4,22.576-70.632,40.549C2.4,69.031-1.217,87.607.262,95.388c5.315,27.617,43.4,45.59,58.632,58.906-.767.438-1.479.822-2.082,1.151C49.2,159.226,20.153,174.4,12.92,190.46c-8.219,18.192,1.315,31.234,7.617,32.987C40.1,228.872,60.209,219.118,71,203.008s9.48-37.042,4.493-46.632a1.147,1.147,0,0,0-.219-.329c1.973-1.151,4-2.356,5.973-3.507,3.891-2.3,7.726-4.438,11.014-6.192-1.863,5.1-3.233,11.178-3.891,19.946-.822,10.3,3.4,23.672,8.932,28.932a9.869,9.869,0,0,0,7.233,2.356c6.466,0,9.37-5.37,12.6-11.726,3.945-7.781,7.507-16.822,7.507-16.822s-4.438,24.439,7.617,24.439c4.384,0,8.822-5.7,10.795-8.6v.055s.11-.164.329-.548c.438-.712.712-1.151.712-1.151v-.11c1.753-3.069,5.7-10.028,11.562-21.59,7.562-14.9,14.85-33.535,14.85-33.535a95.236,95.236,0,0,0,2.9,12.11c1.315,4.438,4.055,9.315,6.247,14.028-1.753,2.466-2.849,3.836-2.849,3.836l.055.055c-1.425,1.863-2.959,3.891-4.658,5.863-5.973,7.124-13.1,15.288-14.083,17.644-1.151,2.795-.877,4.822,1.315,6.466,1.589,1.206,4.438,1.37,7.343,1.206a33.718,33.718,0,0,0,11.014-2.521,36.964,36.964,0,0,0,9.48-4.986,21.214,21.214,0,0,0,9.1-18.686,37.727,37.727,0,0,0-3.452-13.206c.548-.767,1.041-1.534,1.589-2.3a251.009,251.009,0,0,0,16.439-28.384,95.237,95.237,0,0,0,2.9,12.11c1.1,3.836,3.343,8,5.315,12.055-8.713,7.069-14.083,15.288-16,20.658-3.452,9.973-.767,14.466,4.329,15.507,2.3.493,5.589-.6,8-1.644a36.441,36.441,0,0,0,10.137-5.206c5.863-4.329,11.507-10.356,11.178-18.521a35.014,35.014,0,0,0-2.521-10.959c7.4-3.069,16.932-4.767,29.1-3.343,26.083,3.069,31.234,19.343,30.247,26.193s-6.466,10.576-8.274,11.726-2.411,1.534-2.247,2.356c.219,1.206,1.1,1.151,2.63.932,2.137-.384,13.7-5.534,14.192-18.138C300.764,146.732,285.421,129.143,258.3,129.307ZM57.086,197.145c-8.658,9.425-20.713,12.987-25.919,9.973-5.589-3.233-3.4-17.151,7.233-27.124A138.042,138.042,0,0,1,58.73,164.815c1.26-.767,3.123-1.863,5.37-3.233.384-.219.6-.329.6-.329h0l1.315-.822C69.908,174.678,66.182,187.227,57.086,197.145ZM120.1,154.294c-3.014,7.343-9.315,26.138-13.151,25.1-3.288-.877-5.315-15.124-.658-29.206,2.356-7.069,7.343-15.507,10.247-18.8,4.712-5.26,9.918-7.014,11.178-4.877C129.307,129.307,121.964,149.691,120.1,154.294Zm52,24.877c-1.26.658-2.466,1.1-3.014.767-.384-.219.548-1.1.548-1.1s6.521-7.014,9.1-10.192c1.48-1.863,3.233-4.055,5.1-6.521v.712C183.829,171.226,175.719,176.87,172.1,179.172Zm40.111-9.151c-.932-.658-.767-2.849,2.356-9.7a36.511,36.511,0,0,1,8.932-11.507,15.512,15.512,0,0,1,.877,5.041C224.324,164.431,216.762,168.377,212.214,170.021Z" transform="matrix(0.996, -0.087, 0.087, 0.996, 0.028, 26.171)" fill="url(#linear-gradient)"/>
</svg>
