<svg width="322" height="322" viewBox="0 0 322 322" fill="none" xmlns="http://www.w3.org/2000/svg">
<path d="M290.555 0H31.4453C14.0785 0 0 14.0785 0 31.4453V290.555C0 307.921 14.0785 322 31.4453 322H290.555C307.921 322 322 307.921 322 290.555V31.4453C322 14.0785 307.921 0 290.555 0Z" fill="url(#paint0_linear_503_127)"/>
<path fill-rule="evenodd" clip-rule="evenodd" d="M199.363 255.965V287.41C204.457 290.052 210.684 292.001 217.602 293.322C224.52 294.643 232.066 295.271 239.613 295.271C247.16 295.271 254.078 294.58 260.996 293.133C267.914 291.687 273.574 289.297 278.605 286.215C283.7 282.882 288.039 278.668 290.555 273.008C293.07 267.348 295.02 261.059 295.02 252.883C295.02 247.16 294.139 242.192 292.441 237.789C290.743 233.387 288.291 229.614 284.895 226.469C281.687 223.136 277.977 220.18 273.574 217.664C269.172 215.149 264.141 212.507 258.48 210.118C254.33 208.42 250.934 206.784 247.16 205.149C243.89 203.514 241.06 201.879 238.984 200.244C236.657 198.546 234.896 196.785 233.639 194.961C232.381 193.074 231.752 190.999 231.752 188.672C231.752 186.534 232.312 184.584 233.45 182.823C234.588 181.062 236.154 179.616 238.167 178.358C240.179 177.1 242.695 176.157 245.714 175.465C248.67 174.773 251.94 174.459 255.776 174.459C258.418 174.459 261.185 174.654 263.952 175.05C266.845 175.446 269.801 176.056 272.757 176.874C275.713 177.691 278.605 178.697 281.561 179.955C284.329 181.213 286.907 182.66 289.108 184.295V154.736C284.329 152.912 279.046 151.529 273.386 150.648C267.725 149.768 261.436 149.328 253.889 149.328C246.343 149.328 239.425 150.145 232.507 151.717C225.589 153.29 219.929 155.805 214.897 159.264C209.803 162.66 206.093 166.811 202.948 172.471C199.992 177.754 198.546 183.792 198.546 191.338C198.546 200.772 201.25 208.948 206.721 215.237C212.13 222.155 220.557 227.186 231.249 232.217C235.588 233.978 239.425 235.739 243.198 237.437C246.971 239.135 250.116 240.896 252.632 242.72C255.336 244.544 257.474 246.556 258.921 248.695C260.493 250.833 261.311 253.349 261.311 256.242C261.311 258.254 260.82 260.141 259.864 261.902C258.908 263.663 257.411 265.172 255.399 266.43C253.386 267.688 250.934 268.694 247.852 269.449C244.896 270.14 241.563 270.518 237.161 270.518C230.243 270.518 223.325 269.323 217.036 266.933C210.118 264.543 203.829 260.958 198.168 256.242L199.363 255.965ZM146.535 178.609H186.785V152.824H74.2109V178.609H114.461V293.699H146.535V178.609Z" fill="white"/>
<defs>
<linearGradient id="paint0_linear_503_127" x1="161" y1="0" x2="161" y2="322" gradientUnits="userSpaceOnUse">
<stop stop-color="#33A0CA"/>
<stop offset="1" stop-color="#2E65D4"/>
</linearGradient>
</defs>
</svg>
